<svg width="1200" height="630" xmlns="http://www.w3.org/2000/svg">
  <defs>
    <linearGradient id="bg" x1="0" y1="0" x2="1" y2="1">
      <stop offset="0%" stop-color="#fafafa"/>
      <stop offset="100%" stop-color="#f0f9ff"/>
    </linearGradient>
    <linearGradient id="accent" x1="0" y1="0" x2="1" y2="0">
      <stop offset="0%" stop-color="#0ea5e9"/>
      <stop offset="100%" stop-color="#a78bfa"/>
    </linearGradient>
  </defs>
  <rect width="1200" height="630" fill="url(#bg)"/>
  <!-- Accent line -->
  <rect x="80" y="200" width="60" height="4" rx="2" fill="url(#accent)" opacity="0.6"/>
  <!-- Title -->
  <text x="80" y="260" font-family="system-ui, -apple-system, sans-serif" font-size="52" font-weight="600" fill="#111827" letter-spacing="-1.5">Deterministic screening.</text>
  <text x="80" y="320" font-family="system-ui, -apple-system, sans-serif" font-size="52" font-weight="600" fill="#0ea5e9" letter-spacing="-1.5">Verifiable evidence.</text>
  <!-- Subtitle -->
  <text x="80" y="380" font-family="system-ui, -apple-system, sans-serif" font-size="22" fill="#6b7280" letter-spacing="0.2">Compliance screening infrastructure with structured evidence</text>
  <text x="80" y="410" font-family="system-ui, -apple-system, sans-serif" font-size="22" fill="#6b7280" letter-spacing="0.2">for every decision.</text>
  <!-- Brand -->
  <rect x="80" y="490" width="32" height="32" rx="8" fill="#0ea5e9" opacity="0.1"/>
  <text x="86" y="512" font-family="system-ui" font-size="16" fill="#0ea5e9" font-weight="600">S</text>
  <text x="124" y="512" font-family="system-ui, -apple-system, sans-serif" font-size="18" font-weight="600" fill="#111827" letter-spacing="-0.3">CoreCompliance AI</text>
  <!-- Layer badges -->
  <rect x="800" y="220" width="320" height="44" rx="8" fill="#ffffff" stroke="#e2e4e9" stroke-width="1"/>
  <rect x="812" y="232" width="28" height="20" rx="4" fill="#0ea5e9"/>
  <text x="819" y="247" font-family="monospace" font-size="10" fill="white" font-weight="700">L1</text>
  <text x="850" y="248" font-family="system-ui" font-size="13" fill="#111827" font-weight="500">Deterministic Match</text>
  <text x="1060" y="248" font-family="monospace" font-size="11" fill="#9ca3af">~85%</text>

  <rect x="800" y="272" width="320" height="44" rx="8" fill="#ffffff" stroke="#e2e4e9" stroke-width="1"/>
  <rect x="812" y="284" width="28" height="20" rx="4" fill="#a78bfa"/>
  <text x="819" y="299" font-family="monospace" font-size="10" fill="white" font-weight="700">L2</text>
  <text x="850" y="300" font-family="system-ui" font-size="13" fill="#111827" font-weight="500">Vector Similarity</text>
  <text x="1068" y="300" font-family="monospace" font-size="11" fill="#9ca3af">~8%</text>

  <rect x="800" y="324" width="320" height="44" rx="8" fill="#ffffff" stroke="#e2e4e9" stroke-width="1"/>
  <rect x="812" y="336" width="28" height="20" rx="4" fill="#f59e0b"/>
  <text x="819" y="351" font-family="monospace" font-size="10" fill="white" font-weight="700">L3</text>
  <text x="850" y="352" font-family="system-ui" font-size="13" fill="#111827" font-weight="500">Semantic Reasoning</text>
  <text x="1068" y="352" font-family="monospace" font-size="11" fill="#9ca3af">~2%</text>

  <rect x="800" y="376" width="320" height="44" rx="8" fill="#ffffff" stroke="#e2e4e9" stroke-width="1"/>
  <rect x="812" y="388" width="28" height="20" rx="4" fill="#ef4444"/>
  <text x="819" y="403" font-family="monospace" font-size="10" fill="white" font-weight="700">L4</text>
  <text x="850" y="404" font-family="system-ui" font-size="13" fill="#111827" font-weight="500">Human Review</text>
  <text x="1068" y="404" font-family="monospace" font-size="11" fill="#9ca3af">~5%</text>

  <!-- Evidence output -->
  <rect x="800" y="440" width="320" height="36" rx="8" fill="#f0f9ff" stroke="#0ea5e9" stroke-width="1" opacity="0.8"/>
  <circle cx="820" cy="458" r="4" fill="#0ea5e9"/>
  <text x="832" y="463" font-family="monospace" font-size="12" fill="#0ea5e9" font-weight="500">DecisionEventPackage</text>
</svg>
